HIERARCHY
ROOT Hip
{
  OFFSET 0.0 0.0 0.0
  CHANNELS 6 Xposition Yposition Zposition Xrotation Yrotation Zrotation
  JOINT LowerSpine
  {
    OFFSET 0.0 0.061367 -0.03653
    CHANNELS 3 Xrotation Yrotation Zrotation
    JOINT MiddleSpine
    {
      OFFSET 0.0 0.056002 0.002633
      CHANNELS 3 Xrotation Yrotation Zrotation
      JOINT Chest
      {
        OFFSET 0.0 0.069296 -0.013882
        CHANNELS 3 Xrotation Yrotation Zrotation
        JOINT Neck
        {
          OFFSET 0.0 0.156156 -0.002923
          CHANNELS 3 Xrotation Yrotation Zrotation
          JOINT Head
          {
            OFFSET 0.0 0.088183 0.023986
            CHANNELS 3 Xrotation Yrotation Zrotation
            End Site
            {
              OFFSET 1e-06 0.123215 0.003678
            }
          }
        }
        JOINT LClavicle
        {
          OFFSET 0.014189 0.150698 0.046467
          CHANNELS 3 Xrotation Yrotation Zrotation
          JOINT LShoulder
          {
            OFFSET 0.082893 0.021616 -0.034976
            CHANNELS 3 Xrotation Yrotation Zrotation
            JOINT LForearm
            {
              OFFSET 0.195645 -0.000695 -0.001695
              CHANNELS 3 Xrotation Yrotation Zrotation
              JOINT LHand
              {
                OFFSET 0.163209 0.000474 -0.000977
                CHANNELS 3 Xrotation Yrotation Zrotation
                End Site
                {
                  OFFSET 0.0 0.006864 0.0
                }
              }
            }
          }
        }
        JOINT RClavicle
        {
          OFFSET -0.014189 0.150698 0.046467
          CHANNELS 3 Xrotation Yrotation Zrotation
          JOINT RShoulder
          {
            OFFSET -0.082908 0.021619 -0.034982
            CHANNELS 3 Xrotation Yrotation Zrotation
            JOINT RForearm
            {
              OFFSET -0.195645 -0.000695 -0.001695
              CHANNELS 3 Xrotation Yrotation Zrotation
              JOINT RHand
              {
                OFFSET -0.163209 0.000474 -0.000977
                CHANNELS 3 Xrotation Yrotation Zrotation
                End Site
                {
                  OFFSET 0.0 0.006864 0.0
                }
              }
            }
          }
        }
      }
    }
  }
  JOINT RThigh
  {
    OFFSET -0.072558 0.02774 -0.005953
    CHANNELS 3 Xrotation Yrotation Zrotation
    JOINT RShin
    {
      OFFSET -0.005253 -0.285537 0.0
      CHANNELS 3 Xrotation Yrotation Zrotation
      JOINT RFoot
      {
        OFFSET 0.0 -0.28038 0.0
        CHANNELS 3 Xrotation Yrotation Zrotation
        JOINT RToe
        {
          OFFSET 0.0 -0.030816 0.064441
          CHANNELS 3 Xrotation Yrotation Zrotation
          End Site
          {
            OFFSET 0.0 0.0 0.043231
          }
        }
      }
    }
  }
  JOINT LThigh
  {
    OFFSET 0.072557 0.027741 -0.005953
    CHANNELS 3 Xrotation Yrotation Zrotation
    JOINT LShin
    {
      OFFSET 0.005253 -0.285539 0.0
      CHANNELS 3 Xrotation Yrotation Zrotation
      JOINT LFoot
      {
        OFFSET 0.0 -0.28038 0.0
        CHANNELS 3 Xrotation Yrotation Zrotation
        JOINT LToe
        {
          OFFSET 0.0 -0.030816 0.064441
          CHANNELS 3 Xrotation Yrotation Zrotation
          End Site
          {
            OFFSET 0.0 0.0 0.043231
          }
        }
      }
    }
  }
}
MOTION
Frames: 11
Frame Time: 0.03333333333333333
-0.034935 0.571364 0.035852 20.803778 17.657797 15.824999 -16.875092 21.375271 -19.677675 3.209555 -6.759853 -33.378269 -8.629541 -26.630941 19.882668 4.990409 -33.985664 -2.449324 -2.836079 33.800056 9.876647 -6.812759 34.431297 -14.983418 15.046432 -3.248916 -31.714733 -18.926331 -27.967997 -37.610523 -13.763282 -20.560347 22.788054 26.831484 -4.112698 28.614923 -12.073389 23.84358 7.575915 -121.508957 56.852875 83.540558 28.317175 8.862556 16.660744 -17.462357 -10.209083 -29.251587 -10.137788 30.29372 16.163635 -8.341939 -19.629066 26.462805 10.40171 -27.379055 -17.170242 -16.031624 0.185571 -25.936678 -11.331122 33.290932 17.170813 22.695852 17.528908 -19.571339 -15.756699 28.754595 17.333979 
-0.03932 0.569213 0.034882 20.49564 17.297934 16.037188 -16.436062 21.031948 -20.363716 3.177049 -6.449623 -33.422928 -7.996695 -26.629356 20.188938 4.793556 -33.907619 -2.200702 -2.974312 33.717003 9.880322 -7.841015 34.01088 -13.967522 14.776973 -3.309666 -31.639431 -19.006905 -27.669376 -37.411743 -13.89959 -20.538578 22.619194 26.862656 -2.894287 28.764437 -11.983385 22.579149 9.336843 -118.713852 56.712677 81.632828 28.238459 8.864309 16.660952 -17.319262 -10.156431 -29.267422 -10.204552 29.557669 16.940285 -9.273104 -18.873713 26.588022 10.100662 -27.42588 -17.195856 -16.04225 0.103444 -25.828831 -11.13878 32.898804 17.573141 22.416252 17.140903 -20.062279 -15.602178 28.765516 17.26531 
-0.043689 0.567549 0.033743 20.177353 16.956953 16.231081 -16.063665 20.700966 -20.951702 3.160554 -6.178292 -33.453228 -7.401542 -26.636276 20.435719 4.462049 -33.837498 -2.026912 -3.121267 33.620167 9.892035 -8.815878 33.582703 -13.012142 14.637264 -3.438744 -31.48233 -19.007162 -27.377956 -37.240505 -14.029079 -20.516745 22.447231 26.867102 -1.615054 28.888412 -11.646772 21.370817 10.974872 -116.162506 56.604206 80.047653 28.149855 8.874344 16.653782 -17.188089 -10.098272 -29.296474 -10.24559 28.810087 17.648535 -10.159553 -18.067326 26.736542 9.815413 -27.46307 -17.213116 -16.046478 0.052049 -25.682901 -10.9212 32.497135 17.928768 22.141563 16.716787 -20.523203 -15.473131 28.759031 17.183636 
-0.048026 0.566288 0.032575 19.816036 16.560001 16.428398 -15.742053 20.360666 -21.454893 3.140391 -5.933754 -33.455338 -6.82251 -26.549017 20.682482 4.010699 -33.765671 -1.93511 -3.262156 33.508499 9.905011 -9.701861 33.186756 -12.069709 14.554807 -3.658203 -31.338057 -18.929495 -27.146927 -37.033356 -14.128524 -20.483809 22.287693 26.791338 -0.417192 29.00194 -11.237587 20.428671 12.373872 -113.035812 56.452618 78.029778 28.052671 8.879822 16.643835 -16.98358 -9.989988 -29.323614 -10.310696 28.081615 18.306517 -10.985087 -17.213015 26.878105 9.543823 -27.487833 -17.222366 -15.980662 0.02004 -25.488401 -10.693265 32.044029 18.264637 21.846752 16.304218 -20.946981 -15.35 28.736614 17.087242 
-0.051958 0.564981 0.03171 19.529022 16.253244 16.597641 -15.452502 20.027313 -21.897785 3.096386 -5.698664 -33.471462 -6.399643 -26.458323 20.856764 3.54388 -33.689381 -1.881813 -3.405425 33.390411 9.899943 -10.413618 32.810272 -11.234117 14.501287 -3.92111 -31.154463 -18.78463 -26.906151 -36.802673 -14.201086 -20.441263 22.129753 26.698225 0.635926 29.003702 -10.949541 19.711069 13.526532 -110.121437 56.312534 76.182533 27.946373 8.869964 16.634811 -16.790663 -9.889802 -29.442865 -10.420408 27.323486 18.932072 -11.757842 -16.434319 26.965092 9.301324 -27.492455 -17.226355 -15.933611 -0.032215 -25.327839 -10.455822 31.566359 18.574203 21.520426 15.91344 -21.326828 -15.217915 28.693525 16.986454 
-0.055608 0.564082 0.030871 19.278343 16.00304 16.719278 -15.189235 19.694372 -22.276447 3.039597 -5.49616 -33.458405 -6.064255 -26.336046 20.969738 3.110133 -33.595692 -1.815044 -3.543647 33.263023 9.881614 -11.060711 32.443882 -10.478182 14.445695 -4.138204 -31.008629 -18.655907 -26.681095 -36.571701 -14.262941 -20.387114 21.9729 26.583015 1.655527 28.966475 -10.673204 19.04183 14.6091 -107.496857 56.2201 74.577309 27.837334 8.854614 16.614248 -16.658543 -9.757118 -29.574324 -10.429808 26.625776 19.469534 -12.460247 -15.717547 27.019924 9.073156 -27.480629 -17.219088 -15.884819 -0.024873 -25.175663 -10.251972 31.140659 18.860493 21.167305 15.535645 -21.656075 -15.108208 28.631691 16.875004 
-0.059194 0.563689 0.029845 19.132402 15.929226 16.750517 -14.939804 19.364351 -22.638309 2.954623 -5.37032 -33.395828 -5.865399 -26.209404 20.988438 2.867691 -33.491608 -1.684228 -3.666787 33.140991 9.853566 -11.589426 32.124874 -9.83355 14.376698 -4.384113 -30.855247 -18.520983 -26.540239 -36.361618 -14.309552 -20.321976 21.834444 26.417116 2.484125 28.922955 -10.332965 18.607145 15.503179 -104.57061 56.146187 72.751228 27.746193 8.820544 16.574499 -16.75569 -9.635356 -29.718252 -10.121807 25.979273 19.965809 -12.915555 -15.160225 27.019899 8.872406 -27.461432 -17.196083 -15.986095 0.058104 -24.993267 -10.003386 30.819979 19.098488 20.870405 15.120159 -21.911154 -15.023966 28.553698 16.769997 
-0.062118 0.563573 0.029234 19.085907 15.919378 16.715988 -14.740783 19.102842 -22.958185 2.887554 -5.2885 -33.337479 -5.720738 -26.066921 21.010561 2.819577 -33.391201 -1.537289 -3.781179 33.056976 9.838788 -12.006936 31.898678 -9.306302 14.269958 -4.613298 -30.709955 -18.453955 -26.517151 -36.220348 -14.346268 -20.277018 21.744368 26.284998 3.043424 28.911777 -10.129224 18.232391 16.22084 -101.904877 56.022511 71.070061 27.67985 8.798285 16.550444 -16.923557 -9.549788 -29.884415 -9.786709 25.400015 20.427731 -13.234585 -14.794064 27.000639 8.712814 -27.458319 -17.182657 -16.144161 0.111277 -24.845873 -9.779577 30.575666 19.31727 20.633654 14.760456 -22.12435 -14.961215 28.503809 16.692501 
-0.064364 0.563802 0.028917 19.121983 15.934099 16.658653 -14.603676 18.916845 -23.191082 2.846305 -5.238899 -33.28907 -5.636849 -25.947243 21.013594 2.852831 -33.306698 -1.446857 -3.876295 33.005974 9.822355 -12.304605 31.754093 -8.922225 14.150415 -4.784057 -30.579931 -18.452799 -26.547102 -36.117321 -14.350731 -20.248629 21.704527 26.172997 3.385911 28.94302 -10.026781 17.889109 16.799448 -99.632187 55.877476 69.656815 27.637011 8.791373 16.538378 -17.138918 -9.478691 -30.04113 -9.492636 24.956978 20.788153 -13.455151 -14.586992 26.949163 8.59278 -27.464853 -17.182016 -16.304647 0.188059 -24.757727 -9.618907 30.407152 19.492857 20.480913 14.474899 -22.272646 -14.919607 28.47728 16.635693 
-0.066089 0.564387 0.028676 19.199331 15.974563 16.598364 -14.492837 18.767469 -23.372084 2.808557 -5.193644 -33.250427 -5.568905 -25.83927 21.017975 2.976084 -33.218712 -1.368835 -3.956044 32.96714 9.813895 -12.495211 31.676884 -8.656374 13.971387 -4.873805 -30.504503 -18.517046 -26.613369 -36.042213 -14.339087 -20.232559 21.682688 26.06012 3.535877 29.01096 -10.042554 17.606337 17.275211 -97.545013 55.706806 68.297806 27.607735 8.787227 16.525667 -17.390224 -9.442162 -30.181883 -9.205374 24.600506 21.059204 -13.604216 -14.483261 26.875584 8.493766 -27.479029 -17.178154 -16.444164 0.283234 -24.728554 -9.524751 30.300266 19.639849 20.359491 14.268866 -22.37611 -14.880496 28.461119 16.59491 
-0.067283 0.565028 0.02849 19.262392 16.023239 16.538696 -14.400139 18.6817 -23.473551 2.774715 -5.157501 -33.211185 -5.49539 -25.732496 21.030222 3.183697 -33.128426 -1.309948 -4.025701 32.928421 9.809563 -12.559536 31.657927 -8.515087 13.744206 -4.882628 -30.553465 -18.615191 -26.671885 -35.966454 -14.318168 -20.215723 21.665815 25.954889 3.485156 29.103033 -10.194551 17.413094 17.540262 -96.108109 55.596283 67.314888 27.583939 8.773286 16.512281 -17.584272 -9.435886 -30.265003 -8.982823 24.346746 21.231518 -13.625381 -14.512505 26.771015 8.412562 -27.485996 -17.166302 -16.549894 0.372717 -24.706739 -9.468731 30.256041 19.724632 20.264198 14.202721 -22.406445 -14.850525 28.437733 16.56657 
